<svg id="mermaid-svg" width="296" height="280" xmlns="http://www.w3.org/2000/svg" viewBox="0 0 296 280" style="max-width: 296px;" role="graphics-document document" xmlns:xlink="http://www.w3.org/1999/xlink"><defs><marker id="arch-arrow" refX="9" refY="3.5" markerWidth="10" markerHeight="7" orient="auto"><path d="M0,0 L10,3.5 L0,7 Z" class="arrowMarkerPath" style="stroke-width: 1; stroke-dasharray: 1, 0;"/></marker></defs><rect width="296" height="280" fill="#ffffff" /><g transform="translate(8,8)"><rect x="0" y="0" width="280" height="264" rx="8" ry="8" fill="#E3F2FD" stroke="#4FC3F7" stroke-width="2" style="stroke-dasharray: 5,3"/><text x="20" y="22" text-anchor="start" dominant-baseline="middle" font-size="16px" font-family="'trebuchet ms', verdana, arial, sans-serif" font-weight="bold" fill="#1a192b">API</text><rect x="20" y="44" width="100" height="80" rx="8" ry="8" fill="#ECECFF" stroke="#81C784" stroke-width="2"/><g transform="translate(54,52) scale(0.64)"><path d="M10,20 L10,50 Q25,60 40,50 L40,20 Q25,10 10,20 M10,20 Q25,30 40,20" fill="#81C784" stroke="#333333" stroke-width="1"/></g><text x="70" y="112" text-anchor="middle" dominant-baseline="middle" font-size="14px" font-family="'trebuchet ms', verdana, arial, sans-serif" fill="#1a192b">Database</text><rect x="160" y="44" width="100" height="80" rx="8" ry="8" fill="#ECECFF" stroke="#90A4AE" stroke-width="2"/><g transform="translate(194,52) scale(0.64)"><path d="M5,10 L45,10 L45,40 L5,40 Z M5,15 L45,15 M8,12.5 A1,1 0 1,1 8,12.49" fill="#90A4AE" stroke="#333333" stroke-width="1"/></g><text x="210" y="112" text-anchor="middle" dominant-baseline="middle" font-size="14px" font-family="'trebuchet ms', verdana, arial, sans-serif" fill="#1a192b">Server</text><rect x="20" y="164" width="100" height="80" rx="8" ry="8" fill="#ECECFF" stroke="#FFB74D" stroke-width="2"/><g transform="translate(54,172) scale(0.64)"><path d="M5,40 L5,20 A20,10 0 1,1 45,20 L45,40 A20,10 0 1,1 5,40 M5,20 A20,10 0 1,0 45,20" fill="#FFB74D" stroke="#333333" stroke-width="1"/></g><text x="70" y="232" text-anchor="middle" dominant-baseline="middle" font-size="14px" font-family="'trebuchet ms', verdana, arial, sans-serif" fill="#1a192b">Storage</text><path d="M20,84 L36,84 L36,84 L260,84" fill="none" stroke="#333333" stroke-width="1.5"/><path d="M160,84 L150,84 Q144,84 144,90 L144,198 Q144,204 138,204 L120,204" fill="none" stroke="#333333" stroke-width="1.5"/></g></svg>