<svg id="mermaid-svg" width="766" height="430" xmlns="http://www.w3.org/2000/svg" viewBox="0 0 766 430" style="max-width: 766px;" role="graphics-document document" xmlns:xlink="http://www.w3.org/1999/xlink"><defs><marker id="c4arrow" refX="9" refY="3.5" markerWidth="10" markerHeight="7" orient="auto"><path d="M0,0 L10,3.5 L0,7 Z" class="arrowMarkerPath" style="stroke-width: 1; stroke-dasharray: 1, 0;"/></marker></defs><rect width="766" height="430" fill="#ffffff" /><text x="383" y="33" text-anchor="middle" dominant-baseline="middle" font-size="22px" font-family="'trebuchet ms', verdana, arial, sans-serif" font-weight="bold" fill="#1a192b">Container Diagram</text><g id="c4-user" class="c4-element"><circle cx="383" cy="80" r="18" fill="#5b9bd5" stroke="none"/><rect x="293" y="102" width="180" height="66" rx="8" ry="8" fill="#5b9bd5" stroke="none"/><text x="383" y="135" text-anchor="middle" dominant-baseline="middle" font-size="15px" font-family="'trebuchet ms', verdana, arial, sans-serif" font-weight="bold" fill="#FFFFFF">User</text></g><g id="c4-web" class="c4-element"><rect x="33" y="272" width="200" height="90" rx="8" ry="8" fill="#9370DB" stroke="none"/><text x="133" y="310.5" text-anchor="middle" dominant-baseline="middle" font-size="15px" font-family="'trebuchet ms', verdana, arial, sans-serif" font-weight="bold" fill="#FFFFFF">Web App</text><text x="133" y="327.5" text-anchor="middle" dominant-baseline="middle" font-size="13px" font-family="'trebuchet ms', verdana, arial, sans-serif" fill="#FFFFFF">[React]</text></g><g id="c4-api" class="c4-element"><rect x="283" y="272" width="200" height="90" rx="8" ry="8" fill="#9370DB" stroke="none"/><text x="383" y="310.5" text-anchor="middle" dominant-baseline="middle" font-size="15px" font-family="'trebuchet ms', verdana, arial, sans-serif" font-weight="bold" fill="#FFFFFF">API</text><text x="383" y="327.5" text-anchor="middle" dominant-baseline="middle" font-size="13px" font-family="'trebuchet ms', verdana, arial, sans-serif" fill="#FFFFFF">[C#]</text></g><g id="c4-db" class="c4-element"><ellipse cx="633" cy="287" rx="95" ry="15" fill="#9370DB" stroke="none"/><rect x="538" y="287" width="190" height="60" fill="#9370DB" stroke="none"/><ellipse cx="633" cy="347" rx="95" ry="15" fill="#9370DB" stroke="none"/><text x="633" y="310.5" text-anchor="middle" dominant-baseline="middle" font-size="15px" font-family="'trebuchet ms', verdana, arial, sans-serif" font-weight="bold" fill="#FFFFFF">Database</text><text x="633" y="327.5" text-anchor="middle" dominant-baseline="middle" font-size="13px" font-family="'trebuchet ms', verdana, arial, sans-serif" fill="#FFFFFF">[PostgreSQL]</text></g><rect x="13" y="228" width="740" height="154" rx="8" ry="8" fill="none" stroke="#666666" stroke-width="1.5" style="stroke-dasharray:8,4"/><text x="33" y="256" text-anchor="start" dominant-baseline="middle" font-size="15px" font-family="'trebuchet ms', verdana, arial, sans-serif" font-weight="bold" fill="#666666">System</text><line x1="305.52" y1="147.77" x2="210.48" y2="288.55" stroke="#666666" stroke-width="1.5" stroke-dasharray="5,5"/><path d="M 210.48 288.55 L 213.32 281.07 L 218.38 287.27 Z" fill="#666666" stroke="none"/><text x="258.65" y="193.24" text-anchor="middle" dominant-baseline="middle" font-size="13px" font-family="'trebuchet ms', verdana, arial, sans-serif" fill="#666666">Uses</text><line x1="233" y1="317" x2="283" y2="317" stroke="#666666" stroke-width="1.5" stroke-dasharray="5,5"/><path d="M 283 317 L 276.07 321 L 276.07 313 Z" fill="#666666" stroke="none"/><text x="253" y="331" text-anchor="middle" dominant-baseline="middle" font-size="13px" font-family="'trebuchet ms', verdana, arial, sans-serif" fill="#666666">Calls</text><line x1="483" y1="317" x2="533" y2="317" stroke="#666666" stroke-width="1.5" stroke-dasharray="5,5"/><path d="M 533 317 L 526.07 321 L 526.07 313 Z" fill="#666666" stroke="none"/><text x="503" y="331" text-anchor="middle" dominant-baseline="middle" font-size="13px" font-family="'trebuchet ms', verdana, arial, sans-serif" fill="#666666">Reads/Writes</text></svg>