<svg id="mermaid-svg" width="276" height="258" xmlns="http://www.w3.org/2000/svg" viewBox="0 0 276 258" style="max-width: 276px;" role="graphics-document document" xmlns:xlink="http://www.w3.org/1999/xlink"><defs><marker id="arrowhead" refX="9" refY="3.5" markerWidth="10" markerHeight="7" orient="auto"><path d="M0,0 L10,3.5 L0,7 Z" class="arrowMarkerPath" style="stroke-width: 1; stroke-dasharray: 1, 0;"/></marker><marker id="arrowhead-open" refX="9" refY="3.5" markerWidth="10" markerHeight="7" orient="auto"><path d="M0,0 L10,3.5 L0,7 Z" class="arrowMarkerPath" style="stroke-width: 1; stroke-dasharray: 1, 0;"/></marker><marker id="inheritance" refX="10" refY="5" markerWidth="12" markerHeight="12" orient="auto"><path d="M0,0 L10,5 L0,10 Z" class="arrowMarkerPath" style="stroke-width: 1; stroke-dasharray: 1, 0;"/></marker><marker id="composition" refX="10" refY="5" markerWidth="12" markerHeight="12" orient="auto"><path d="M0,5 L5,0 L10,5 L5,10 Z" class="arrowMarkerPath" style="stroke-width: 1; stroke-dasharray: 1, 0;"/></marker><marker id="aggregation" refX="10" refY="5" markerWidth="12" markerHeight="12" orient="auto"><path d="M0,5 L5,0 L10,5 L5,10 Z" class="arrowMarkerPath" style="stroke-width: 1; stroke-dasharray: 1, 0;"/></marker></defs><rect width="276" height="258" fill="#ffffff" /><g transform="translate(8,8)"><line x1="130" y1="91" x2="50" y2="171" stroke="#1a192b" stroke-width="1"/><polygon points="50,171 52.59,161.34 59.66,168.41" fill="#ffffff" stroke="#1a192b"/><line x1="130" y1="91" x2="210" y2="171" stroke="#1a192b" stroke-width="1"/><polygon points="210,171 200.34,168.41 207.41,161.34" fill="#ffffff" stroke="#1a192b"/><rect x="54.72" y="0" width="150.56" height="91" fill="#ffffde" stroke="#1a192b" stroke-width="1"/><text x="130" y="20" text-anchor="middle" dominant-baseline="middle" font-size="16px" font-family="'trebuchet ms', verdana, arial, sans-serif" font-weight="bold" fill="#1a192b">Animal</text><line x1="54.72" y1="40" x2="205.28" y2="40" stroke="#1a192b" stroke-width="1"/><text x="64.72" y="51" text-anchor="start" dominant-baseline="middle" font-size="16px" font-family="'trebuchet ms', verdana, arial, sans-serif" fill="#1a192b">+ age : int</text><text x="64.72" y="71" text-anchor="start" dominant-baseline="middle" font-size="16px" font-family="'trebuchet ms', verdana, arial, sans-serif" fill="#1a192b">+ gender : String</text><rect x="0" y="171" width="100" height="71" fill="#ffffde" stroke="#1a192b" stroke-width="1"/><text x="50" y="191" text-anchor="middle" dominant-baseline="middle" font-size="16px" font-family="'trebuchet ms', verdana, arial, sans-serif" font-weight="bold" fill="#1a192b">Duck</text><line x1="0" y1="211" x2="100" y2="211" stroke="#1a192b" stroke-width="1"/><text x="10" y="222" text-anchor="start" dominant-baseline="middle" font-size="16px" font-family="'trebuchet ms', verdana, arial, sans-serif" fill="#1a192b">+ swim()</text><rect x="160" y="171" width="100" height="71" fill="#ffffde" stroke="#1a192b" stroke-width="1"/><text x="210" y="191" text-anchor="middle" dominant-baseline="middle" font-size="16px" font-family="'trebuchet ms', verdana, arial, sans-serif" font-weight="bold" fill="#1a192b">Fish</text><line x1="160" y1="211" x2="260" y2="211" stroke="#1a192b" stroke-width="1"/><text x="170" y="222" text-anchor="start" dominant-baseline="middle" font-size="16px" font-family="'trebuchet ms', verdana, arial, sans-serif" fill="#1a192b">+ swim()</text></g></svg>