<svg id="mermaid-svg" width="600" height="400" xmlns="http://www.w3.org/2000/svg" viewBox="0 0 600 400" style="max-width: 600px;" role="graphics-document document" xmlns:xlink="http://www.w3.org/1999/xlink"><rect width="600" height="400" fill="#ffffff" /><text x="300" y="23" text-anchor="middle" dominant-baseline="middle" font-size="20px" font-family="'trebuchet ms', verdana, arial, sans-serif" font-weight="bold" fill="#1a192b">&quot;Species Clustering&quot;</text><line x1="188.8" y1="392" x2="188.8" y2="259.25" stroke="#666666" stroke-width="1.5"/><line x1="289.6" y1="392" x2="289.6" y2="259.25" stroke="#666666" stroke-width="1.5"/><line x1="188.8" y1="259.25" x2="289.6" y2="259.25" stroke="#666666" stroke-width="1.5"/><circle cx="239.2" cy="259.25" r="4" fill="#ECECFF" stroke="#9370DB" stroke-width="1"/><line x1="390.4" y1="392" x2="390.4" y2="170.75" stroke="#666666" stroke-width="1.5"/><line x1="491.2" y1="392" x2="491.2" y2="170.75" stroke="#666666" stroke-width="1.5"/><line x1="390.4" y1="170.75" x2="491.2" y2="170.75" stroke="#666666" stroke-width="1.5"/><circle cx="440.8" cy="170.75" r="4" fill="#ECECFF" stroke="#9370DB" stroke-width="1"/><line x1="239.2" y1="259.25" x2="239.2" y2="38" stroke="#666666" stroke-width="1.5"/><line x1="440.8" y1="170.75" x2="440.8" y2="38" stroke="#666666" stroke-width="1.5"/><line x1="239.2" y1="38" x2="440.8" y2="38" stroke="#666666" stroke-width="1.5"/><circle cx="340" cy="38" r="4" fill="#ECECFF" stroke="#9370DB" stroke-width="1"/><circle cx="188.8" cy="392" r="4" fill="#ffffde" stroke="#aaaa33" stroke-width="1"/><circle cx="289.6" cy="392" r="4" fill="#ffffde" stroke="#aaaa33" stroke-width="1"/><circle cx="390.4" cy="392" r="4" fill="#ffffde" stroke="#aaaa33" stroke-width="1"/><circle cx="491.2" cy="392" r="4" fill="#ffffde" stroke="#aaaa33" stroke-width="1"/><text x="83" y="392" text-anchor="end" dominant-baseline="middle" font-size="14px" font-family="'trebuchet ms', verdana, arial, sans-serif" fill="#1a192b">Cat</text><text x="83" y="392" text-anchor="end" dominant-baseline="middle" font-size="14px" font-family="'trebuchet ms', verdana, arial, sans-serif" fill="#1a192b">Dog</text><text x="83" y="392" text-anchor="end" dominant-baseline="middle" font-size="14px" font-family="'trebuchet ms', verdana, arial, sans-serif" fill="#1a192b">Fish</text><text x="83" y="392" text-anchor="end" dominant-baseline="middle" font-size="14px" font-family="'trebuchet ms', verdana, arial, sans-serif" fill="#1a192b">Bird</text></svg>