<svg id="mermaid-svg" width="136" height="435.2" xmlns="http://www.w3.org/2000/svg" viewBox="0 0 136 435.2" style="max-width: 136px;" role="graphics-document document" xmlns:xlink="http://www.w3.org/1999/xlink"><rect width="136" height="435.2" fill="#ffffff" /><g transform="translate(8,8)"><line x1="60" y1="80" x2="60" y2="219.6" stroke="#1a192b" stroke-width="1"/><line x1="64" y1="95" x2="56" y2="95" stroke="#1a192b" stroke-width="1"/><line x1="64" y1="100" x2="56" y2="100" stroke="#1a192b" stroke-width="1"/><circle cx="60" cy="204.6" r="4" fill="#ffffff" stroke="#1a192b" stroke-width="1"/><line x1="60" y1="196.6" x2="60" y2="188.6" stroke="#1a192b" stroke-width="1"/><line x1="60" y1="196.6" x2="64" y2="188.6" stroke="#1a192b" stroke-width="1"/><line x1="60" y1="196.6" x2="56" y2="188.6" stroke="#1a192b" stroke-width="1"/><rect x="34.84" y="139.8" width="50.32" height="20" fill="#ffffff" stroke="none"/><text x="60" y="149.8" text-anchor="middle" dominant-baseline="middle" font-size="14px" font-family="'trebuchet ms', verdana, arial, sans-serif" fill="#1a192b">places</text><line x1="60" y1="249.6" x2="60" y2="389.2" stroke="#1a192b" stroke-width="1"/><line x1="64" y1="264.6" x2="56" y2="264.6" stroke="#1a192b" stroke-width="1"/><line x1="64" y1="269.6" x2="56" y2="269.6" stroke="#1a192b" stroke-width="1"/><line x1="56" y1="374.2" x2="64" y2="374.2" stroke="#1a192b" stroke-width="1"/><line x1="60" y1="369.2" x2="60" y2="361.2" stroke="#1a192b" stroke-width="1"/><line x1="60" y1="369.2" x2="64" y2="361.2" stroke="#1a192b" stroke-width="1"/><line x1="60" y1="369.2" x2="56" y2="361.2" stroke="#1a192b" stroke-width="1"/><rect x="28.12" y="309.4" width="63.76" height="20" fill="#ffffff" stroke="none"/><text x="60" y="319.4" text-anchor="middle" dominant-baseline="middle" font-size="14px" font-family="'trebuchet ms', verdana, arial, sans-serif" fill="#1a192b">contains</text><rect x="0" y="0" width="120" height="80" fill="#ECECFF" stroke="#9370DB" stroke-width="2"/><rect x="0" y="0" width="120" height="30" fill="#9370DB" stroke="#9370DB" stroke-width="1"/><text x="60" y="15" text-anchor="middle" dominant-baseline="middle" font-size="16px" font-family="'trebuchet ms', verdana, arial, sans-serif" font-weight="bold" fill="#ffffff">CUSTOMER</text><line x1="0" y1="30" x2="120" y2="30" stroke="#9370DB" stroke-width="1"/><text x="40" y="50" text-anchor="start" dominant-baseline="middle" font-size="16px" font-family="'trebuchet ms', verdana, arial, sans-serif" fill="#1a192b">string name</text><text x="40" y="70" text-anchor="start" dominant-baseline="middle" font-size="16px" font-family="'trebuchet ms', verdana, arial, sans-serif" fill="#1a192b">int id</text><rect x="0" y="219.6" width="120" height="30" fill="#ECECFF" stroke="#9370DB" stroke-width="2"/><rect x="0" y="219.6" width="120" height="30" fill="#9370DB" stroke="#9370DB" stroke-width="1"/><text x="60" y="234.6" text-anchor="middle" dominant-baseline="middle" font-size="16px" font-family="'trebuchet ms', verdana, arial, sans-serif" font-weight="bold" fill="#ffffff">ORDER</text><rect x="0" y="389.2" width="120" height="30" fill="#ECECFF" stroke="#9370DB" stroke-width="2"/><rect x="0" y="389.2" width="120" height="30" fill="#9370DB" stroke="#9370DB" stroke-width="1"/><text x="60" y="404.2" text-anchor="middle" dominant-baseline="middle" font-size="16px" font-family="'trebuchet ms', verdana, arial, sans-serif" font-weight="bold" fill="#ffffff">LINE-ITEM</text></g></svg>