<svg id="mermaid-svg" width="806" height="236" xmlns="http://www.w3.org/2000/svg" viewBox="0 0 806 236" style="max-width: 806px;" role="graphics-document document" xmlns:xlink="http://www.w3.org/1999/xlink"><rect width="806" height="236" fill="#ffffff" /><text x="403" y="23" text-anchor="middle" dominant-baseline="middle" font-size="18px" font-family="'trebuchet ms', verdana, arial, sans-serif" fill="#1a192b">Project Plan</text><line x1="158" y1="73" x2="798" y2="73" stroke="#333333" stroke-width="1"/><line x1="158" y1="68" x2="158" y2="73" stroke="#333333" stroke-width="1"/><text x="158" y="58" text-anchor="middle" dominant-baseline="middle" font-size="14px" font-family="'trebuchet ms', verdana, arial, sans-serif" fill="#666666">01/01</text><line x1="218" y1="68" x2="218" y2="73" stroke="#333333" stroke-width="1"/><text x="218" y="58" text-anchor="middle" dominant-baseline="middle" font-size="14px" font-family="'trebuchet ms', verdana, arial, sans-serif" fill="#666666">01/04</text><line x1="278" y1="68" x2="278" y2="73" stroke="#333333" stroke-width="1"/><text x="278" y="58" text-anchor="middle" dominant-baseline="middle" font-size="14px" font-family="'trebuchet ms', verdana, arial, sans-serif" fill="#666666">01/07</text><line x1="338" y1="68" x2="338" y2="73" stroke="#333333" stroke-width="1"/><text x="338" y="58" text-anchor="middle" dominant-baseline="middle" font-size="14px" font-family="'trebuchet ms', verdana, arial, sans-serif" fill="#666666">01/10</text><line x1="398" y1="68" x2="398" y2="73" stroke="#333333" stroke-width="1"/><text x="398" y="58" text-anchor="middle" dominant-baseline="middle" font-size="14px" font-family="'trebuchet ms', verdana, arial, sans-serif" fill="#666666">01/13</text><line x1="458" y1="68" x2="458" y2="73" stroke="#333333" stroke-width="1"/><text x="458" y="58" text-anchor="middle" dominant-baseline="middle" font-size="14px" font-family="'trebuchet ms', verdana, arial, sans-serif" fill="#666666">01/16</text><line x1="518" y1="68" x2="518" y2="73" stroke="#333333" stroke-width="1"/><text x="518" y="58" text-anchor="middle" dominant-baseline="middle" font-size="14px" font-family="'trebuchet ms', verdana, arial, sans-serif" fill="#666666">01/19</text><line x1="578" y1="68" x2="578" y2="73" stroke="#333333" stroke-width="1"/><text x="578" y="58" text-anchor="middle" dominant-baseline="middle" font-size="14px" font-family="'trebuchet ms', verdana, arial, sans-serif" fill="#666666">01/22</text><line x1="638" y1="68" x2="638" y2="73" stroke="#333333" stroke-width="1"/><text x="638" y="58" text-anchor="middle" dominant-baseline="middle" font-size="14px" font-family="'trebuchet ms', verdana, arial, sans-serif" fill="#666666">01/25</text><line x1="698" y1="68" x2="698" y2="73" stroke="#333333" stroke-width="1"/><text x="698" y="58" text-anchor="middle" dominant-baseline="middle" font-size="14px" font-family="'trebuchet ms', verdana, arial, sans-serif" fill="#666666">01/28</text><line x1="758" y1="68" x2="758" y2="73" stroke="#333333" stroke-width="1"/><text x="758" y="58" text-anchor="middle" dominant-baseline="middle" font-size="14px" font-family="'trebuchet ms', verdana, arial, sans-serif" fill="#666666">01/31</text><line x1="158" y1="78" x2="158" y2="258" stroke="#e0e0e0" stroke-width="1"/><line x1="298" y1="78" x2="298" y2="258" stroke="#e0e0e0" stroke-width="1"/><line x1="438" y1="78" x2="438" y2="258" stroke="#e0e0e0" stroke-width="1"/><line x1="578" y1="78" x2="578" y2="258" stroke="#e0e0e0" stroke-width="1"/><line x1="718" y1="78" x2="718" y2="258" stroke="#e0e0e0" stroke-width="1"/><line x1="158" y1="78" x2="798" y2="78" stroke="#e0e0e0" stroke-width="1"/><line x1="158" y1="108" x2="798" y2="108" stroke="#e0e0e0" stroke-width="1"/><line x1="158" y1="138" x2="798" y2="138" stroke="#e0e0e0" stroke-width="1"/><line x1="158" y1="168" x2="798" y2="168" stroke="#e0e0e0" stroke-width="1"/><line x1="158" y1="198" x2="798" y2="198" stroke="#e0e0e0" stroke-width="1"/><line x1="158" y1="228" x2="798" y2="228" stroke="#e0e0e0" stroke-width="1"/><line x1="158" y1="258" x2="798" y2="258" stroke="#e0e0e0" stroke-width="1"/><rect x="8" y="78" width="790" height="25" fill="#ECECFF" stroke="none"/><text x="18" y="90.5" text-anchor="start" dominant-baseline="middle" font-size="16px" font-family="'trebuchet ms', verdana, arial, sans-serif" font-weight="bold" fill="#1a192b">Design</text><text x="18" y="123" text-anchor="start" dominant-baseline="middle" font-size="16px" font-family="'trebuchet ms', verdana, arial, sans-serif" fill="#1a192b">Mockups</text><rect x="158" y="113" width="140" height="20" rx="3" ry="3" fill="#9370DB" stroke="#9370DB" stroke-width="1"/><text x="228" y="123" text-anchor="middle" dominant-baseline="middle" font-size="14px" font-family="'trebuchet ms', verdana, arial, sans-serif" fill="#fff">a1</text><text x="18" y="153" text-anchor="start" dominant-baseline="middle" font-size="16px" font-family="'trebuchet ms', verdana, arial, sans-serif" fill="#1a192b">Review</text><rect x="298" y="143" width="60" height="20" rx="3" ry="3" fill="#9370DB" stroke="#9370DB" stroke-width="1"/><text x="328" y="153" text-anchor="middle" dominant-baseline="middle" font-size="14px" font-family="'trebuchet ms', verdana, arial, sans-serif" fill="#fff">a2</text><rect x="8" y="168" width="790" height="25" fill="#ECECFF" stroke="none"/><text x="18" y="180.5" text-anchor="start" dominant-baseline="middle" font-size="16px" font-family="'trebuchet ms', verdana, arial, sans-serif" font-weight="bold" fill="#1a192b">Dev</text><text x="18" y="213" text-anchor="start" dominant-baseline="middle" font-size="16px" font-family="'trebuchet ms', verdana, arial, sans-serif" fill="#1a192b">Coding</text><rect x="358" y="203" width="280" height="20" rx="3" ry="3" fill="#9370DB" stroke="#9370DB" stroke-width="1"/><text x="498" y="213" text-anchor="middle" dominant-baseline="middle" font-size="14px" font-family="'trebuchet ms', verdana, arial, sans-serif" fill="#fff">b1</text><text x="18" y="243" text-anchor="start" dominant-baseline="middle" font-size="16px" font-family="'trebuchet ms', verdana, arial, sans-serif" fill="#1a192b">Testing</text><rect x="638" y="233" width="140" height="20" rx="3" ry="3" fill="#9370DB" stroke="#9370DB" stroke-width="1"/><text x="708" y="243" text-anchor="middle" dominant-baseline="middle" font-size="14px" font-family="'trebuchet ms', verdana, arial, sans-serif" fill="#fff">b2</text></svg>