<svg id="mermaid-svg" width="546" height="281" xmlns="http://www.w3.org/2000/svg" viewBox="0 0 546 281" style="max-width: 546px;" role="graphics-document document" xmlns:xlink="http://www.w3.org/1999/xlink"><rect width="546" height="281" fill="#ffffff" /><text x="273" y="28" text-anchor="middle" dominant-baseline="middle" font-size="20px" font-family="'trebuchet ms', verdana, arial, sans-serif" font-weight="bold" fill="#1a192b">User Purchase Flow</text><text x="438" y="58" text-anchor="start" dominant-baseline="middle" font-size="16px" font-family="'trebuchet ms', verdana, arial, sans-serif" font-weight="bold" fill="#1a192b">Actors:</text><circle cx="448" cy="88" r="8" fill="#4ECDC4" stroke="#9370DB" stroke-width="1"/><text x="463" y="88" text-anchor="start" dominant-baseline="middle" font-size="14px" font-family="'trebuchet ms', verdana, arial, sans-serif" fill="#1a192b">User</text><rect x="8" y="48" width="410" height="90" rx="5" ry="5" fill="#ECECFF" stroke="none"/><text x="18" y="63" text-anchor="start" dominant-baseline="middle" font-size="16px" font-family="'trebuchet ms', verdana, arial, sans-serif" font-weight="bold" fill="#1a192b">Browse</text><rect x="28" y="78" width="150" height="60" rx="8" ry="8" fill="#ffffff" stroke="#51CF66" stroke-width="2"/><rect x="28" y="78" width="150" height="8" rx="8" ry="8" fill="#51CF66" stroke="none"/><rect x="28" y="82" width="150" height="4" fill="#51CF66" stroke="none"/><text x="103" y="103" text-anchor="middle" dominant-baseline="middle" font-size="15px" font-family="'trebuchet ms', verdana, arial, sans-serif" fill="#1a192b">Visit site</text><text x="103" y="123" text-anchor="middle" dominant-baseline="middle" font-size="14px" font-family="'trebuchet ms', verdana, arial, sans-serif" fill="#666666">Score: 5</text><circle cx="38" cy="130" r="5" fill="#4ECDC4" stroke="#9370DB" stroke-width="1"/><rect x="198" y="78" width="150" height="60" rx="8" ry="8" fill="#ffffff" stroke="#FFE066" stroke-width="2"/><rect x="198" y="78" width="150" height="8" rx="8" ry="8" fill="#FFE066" stroke="none"/><rect x="198" y="82" width="150" height="4" fill="#FFE066" stroke="none"/><text x="273" y="103" text-anchor="middle" dominant-baseline="middle" font-size="15px" font-family="'trebuchet ms', verdana, arial, sans-serif" fill="#1a192b">Search product</text><text x="273" y="123" text-anchor="middle" dominant-baseline="middle" font-size="14px" font-family="'trebuchet ms', verdana, arial, sans-serif" fill="#666666">Score: 3</text><circle cx="208" cy="130" r="5" fill="#4ECDC4" stroke="#9370DB" stroke-width="1"/><rect x="8" y="138" width="410" height="90" rx="5" ry="5" fill="#ffffde" stroke="none"/><text x="18" y="153" text-anchor="start" dominant-baseline="middle" font-size="16px" font-family="'trebuchet ms', verdana, arial, sans-serif" font-weight="bold" fill="#1a192b">Purchase</text><rect x="28" y="168" width="150" height="60" rx="8" ry="8" fill="#ffffff" stroke="#8CE99A" stroke-width="2"/><rect x="28" y="168" width="150" height="8" rx="8" ry="8" fill="#8CE99A" stroke="none"/><rect x="28" y="172" width="150" height="4" fill="#8CE99A" stroke="none"/><text x="103" y="193" text-anchor="middle" dominant-baseline="middle" font-size="15px" font-family="'trebuchet ms', verdana, arial, sans-serif" fill="#1a192b">Add to cart</text><text x="103" y="213" text-anchor="middle" dominant-baseline="middle" font-size="14px" font-family="'trebuchet ms', verdana, arial, sans-serif" fill="#666666">Score: 4</text><circle cx="38" cy="220" r="5" fill="#4ECDC4" stroke="#9370DB" stroke-width="1"/><rect x="198" y="168" width="150" height="60" rx="8" ry="8" fill="#ffffff" stroke="#FFE066" stroke-width="2"/><rect x="198" y="168" width="150" height="8" rx="8" ry="8" fill="#FFE066" stroke="none"/><rect x="198" y="172" width="150" height="4" fill="#FFE066" stroke="none"/><text x="273" y="193" text-anchor="middle" dominant-baseline="middle" font-size="15px" font-family="'trebuchet ms', verdana, arial, sans-serif" fill="#1a192b">Checkout</text><text x="273" y="213" text-anchor="middle" dominant-baseline="middle" font-size="14px" font-family="'trebuchet ms', verdana, arial, sans-serif" fill="#666666">Score: 3</text><circle cx="208" cy="220" r="5" fill="#4ECDC4" stroke="#9370DB" stroke-width="1"/><rect x="368" y="168" width="150" height="60" rx="8" ry="8" fill="#ffffff" stroke="#FFA94D" stroke-width="2"/><rect x="368" y="168" width="150" height="8" rx="8" ry="8" fill="#FFA94D" stroke="none"/><rect x="368" y="172" width="150" height="4" fill="#FFA94D" stroke="none"/><text x="443" y="193" text-anchor="middle" dominant-baseline="middle" font-size="15px" font-family="'trebuchet ms', verdana, arial, sans-serif" fill="#1a192b">Payment</text><text x="443" y="213" text-anchor="middle" dominant-baseline="middle" font-size="14px" font-family="'trebuchet ms', verdana, arial, sans-serif" fill="#666666">Score: 2</text><circle cx="378" cy="220" r="5" fill="#4ECDC4" stroke="#9370DB" stroke-width="1"/></svg>