<svg id="mermaid-svg" width="601" height="182" xmlns="http://www.w3.org/2000/svg" viewBox="0 0 601 182" style="max-width: 601px;" role="graphics-document document" xmlns:xlink="http://www.w3.org/1999/xlink"><rect width="601" height="182" fill="#ffffff" /><rect x="8" y="8" width="180" height="166" rx="8" ry="8" fill="#ECECFF" stroke="#e0e0e0" stroke-width="1"/><rect x="8" y="8" width="180" height="40" rx="8" ry="8" fill="#ECECFF" stroke="none"/><rect x="8" y="40" width="180" height="8" fill="#ECECFF" stroke="none"/><text x="98" y="28" text-anchor="middle" dominant-baseline="middle" font-size="16px" font-family="'trebuchet ms', verdana, arial, sans-serif" font-weight="bold" fill="#1a192b">Todo</text><rect x="16" y="63" width="164" height="40" rx="4" ry="4" fill="#ffffff" stroke="#e0e0e0" stroke-width="1"/><rect x="16" y="63" width="4" height="40" rx="2" ry="2" fill="#9370DB" stroke="none"/><text x="28" y="83" text-anchor="start" dominant-baseline="middle" font-size="14px" font-family="'trebuchet ms', verdana, arial, sans-serif" fill="#1a192b">Task 1</text><rect x="16" y="111" width="164" height="40" rx="4" ry="4" fill="#ffffff" stroke="#e0e0e0" stroke-width="1"/><rect x="16" y="111" width="4" height="40" rx="2" ry="2" fill="#9370DB" stroke="none"/><text x="28" y="131" text-anchor="start" dominant-baseline="middle" font-size="14px" font-family="'trebuchet ms', verdana, arial, sans-serif" fill="#1a192b">Task 2</text><rect x="203" y="8" width="180" height="166" rx="8" ry="8" fill="#ffffde" stroke="#e0e0e0" stroke-width="1"/><rect x="203" y="8" width="180" height="40" rx="8" ry="8" fill="#ffffde" stroke="none"/><rect x="203" y="40" width="180" height="8" fill="#ffffde" stroke="none"/><text x="293" y="28" text-anchor="middle" dominant-baseline="middle" font-size="16px" font-family="'trebuchet ms', verdana, arial, sans-serif" font-weight="bold" fill="#1a192b">In Progress</text><rect x="211" y="63" width="164" height="40" rx="4" ry="4" fill="#ffffff" stroke="#e0e0e0" stroke-width="1"/><rect x="211" y="63" width="4" height="40" rx="2" ry="2" fill="#5b9bd5" stroke="none"/><text x="223" y="83" text-anchor="start" dominant-baseline="middle" font-size="14px" font-family="'trebuchet ms', verdana, arial, sans-serif" fill="#1a192b">Task 3</text><rect x="398" y="8" width="180" height="166" rx="8" ry="8" fill="#e8f4fd" stroke="#e0e0e0" stroke-width="1"/><rect x="398" y="8" width="180" height="40" rx="8" ry="8" fill="#e8f4fd" stroke="none"/><rect x="398" y="40" width="180" height="8" fill="#e8f4fd" stroke="none"/><text x="488" y="28" text-anchor="middle" dominant-baseline="middle" font-size="16px" font-family="'trebuchet ms', verdana, arial, sans-serif" font-weight="bold" fill="#1a192b">Done</text><rect x="406" y="63" width="164" height="40" rx="4" ry="4" fill="#ffffff" stroke="#e0e0e0" stroke-width="1"/><rect x="406" y="63" width="4" height="40" rx="2" ry="2" fill="#4caf50" stroke="none"/><text x="418" y="83" text-anchor="start" dominant-baseline="middle" font-size="14px" font-family="'trebuchet ms', verdana, arial, sans-serif" fill="#1a192b">Task 4</text><rect x="406" y="111" width="164" height="40" rx="4" ry="4" fill="#ffffff" stroke="#e0e0e0" stroke-width="1"/><rect x="406" y="111" width="4" height="40" rx="2" ry="2" fill="#4caf50" stroke="none"/><text x="418" y="131" text-anchor="start" dominant-baseline="middle" font-size="14px" font-family="'trebuchet ms', verdana, arial, sans-serif" fill="#1a192b">Task 5</text></svg>