<svg id="mermaid-svg" width="370.64" height="309" xmlns="http://www.w3.org/2000/svg" viewBox="0 0 370.64 309" style="max-width: 370.64px;" role="graphics-document document" xmlns:xlink="http://www.w3.org/1999/xlink"><rect width="370.64" height="309" fill="#ffffff" /><path d="M 91.76 150.5 C 111.76 150.5, 111.76 50.5, 131.76 50.5" fill="none" stroke="#5b9bd5" stroke-width="2"/><path d="M 223.2 50.5 C 243.2 50.5, 243.2 25.5, 263.2 25.5" fill="none" stroke="#4caf50" stroke-width="2"/><path d="M 223.2 50.5 C 243.2 50.5, 243.2 75.5, 263.2 75.5" fill="none" stroke="#4caf50" stroke-width="2"/><path d="M 91.76 150.5 C 111.76 150.5, 111.76 150.5, 131.76 150.5" fill="none" stroke="#5b9bd5" stroke-width="2"/><path d="M 215.52 150.5 C 235.52 150.5, 235.52 125.5, 255.52 125.5" fill="none" stroke="#4caf50" stroke-width="2"/><path d="M 215.52 150.5 C 235.52 150.5, 235.52 175.5, 255.52 175.5" fill="none" stroke="#4caf50" stroke-width="2"/><path d="M 91.76 150.5 C 111.76 150.5, 111.76 250.5, 131.76 250.5" fill="none" stroke="#5b9bd5" stroke-width="2"/><path d="M 207.84 250.5 C 227.84 250.5, 227.84 225.5, 247.84 225.5" fill="none" stroke="#4caf50" stroke-width="2"/><path d="M 207.84 250.5 C 227.84 250.5, 227.84 275.5, 247.84 275.5" fill="none" stroke="#4caf50" stroke-width="2"/><circle cx="49.88" cy="150.5" r="41.88" fill="#ECECFF" stroke="#A5A5B2" stroke-width="2"/><text x="49.88" y="150.5" text-anchor="middle" dominant-baseline="middle" font-size="16px" font-family="'trebuchet ms', verdana, arial, sans-serif" font-weight="bold" fill="#1a192b">Project</text><rect x="131.76" y="33" width="91.44" height="35" rx="8" ry="8" fill="#ffffde" stroke="#B2B29B" stroke-width="2"/><text x="177.48" y="50.5" text-anchor="middle" dominant-baseline="middle" font-size="16px" font-family="'trebuchet ms', verdana, arial, sans-serif" font-weight="normal" fill="#1a192b">Frontend</text><rect x="263.2" y="8" width="68.4" height="35" rx="8" ry="8" fill="#e8f4fd" stroke="#A2AAB1" stroke-width="2"/><text x="297.4" y="25.5" text-anchor="middle" dominant-baseline="middle" font-size="16px" font-family="'trebuchet ms', verdana, arial, sans-serif" font-weight="normal" fill="#1a192b">React</text><rect x="263.2" y="58" width="60" height="35" rx="8" ry="8" fill="#e8f4fd" stroke="#A2AAB1" stroke-width="2"/><text x="293.2" y="75.5" text-anchor="middle" dominant-baseline="middle" font-size="16px" font-family="'trebuchet ms', verdana, arial, sans-serif" font-weight="normal" fill="#1a192b">CSS</text><rect x="131.76" y="133" width="83.76" height="35" rx="8" ry="8" fill="#ffffde" stroke="#B2B29B" stroke-width="2"/><text x="173.64" y="150.5" text-anchor="middle" dominant-baseline="middle" font-size="16px" font-family="'trebuchet ms', verdana, arial, sans-serif" font-weight="normal" fill="#1a192b">Backend</text><rect x="255.52" y="108" width="60" height="35" rx="8" ry="8" fill="#e8f4fd" stroke="#A2AAB1" stroke-width="2"/><text x="285.52" y="125.5" text-anchor="middle" dominant-baseline="middle" font-size="16px" font-family="'trebuchet ms', verdana, arial, sans-serif" font-weight="normal" fill="#1a192b">API</text><rect x="255.52" y="158" width="91.44" height="35" rx="8" ry="8" fill="#e8f4fd" stroke="#A2AAB1" stroke-width="2"/><text x="301.24" y="175.5" text-anchor="middle" dominant-baseline="middle" font-size="16px" font-family="'trebuchet ms', verdana, arial, sans-serif" font-weight="normal" fill="#1a192b">Database</text><rect x="131.76" y="233" width="76.08" height="35" rx="8" ry="8" fill="#ffffde" stroke="#B2B29B" stroke-width="2"/><text x="169.8" y="250.5" text-anchor="middle" dominant-baseline="middle" font-size="16px" font-family="'trebuchet ms', verdana, arial, sans-serif" font-weight="normal" fill="#1a192b">DevOps</text><rect x="247.84" y="208" width="68.4" height="35" rx="8" ry="8" fill="#e8f4fd" stroke="#A2AAB1" stroke-width="2"/><text x="282.04" y="225.5" text-anchor="middle" dominant-baseline="middle" font-size="16px" font-family="'trebuchet ms', verdana, arial, sans-serif" font-weight="normal" fill="#1a192b">CI/CD</text><rect x="247.84" y="258" width="106.8" height="35" rx="8" ry="8" fill="#e8f4fd" stroke="#A2AAB1" stroke-width="2"/><text x="301.24" y="275.5" text-anchor="middle" dominant-baseline="middle" font-size="16px" font-family="'trebuchet ms', verdana, arial, sans-serif" font-weight="normal" fill="#1a192b">Monitoring</text></svg>