<svg id="mermaid-svg" width="376" height="396" xmlns="http://www.w3.org/2000/svg" viewBox="0 0 376 396" style="max-width: 376px;" role="graphics-document document" xmlns:xlink="http://www.w3.org/1999/xlink"><rect width="376" height="396" fill="#ffffff" /><g transform="translate(8,8)"><text x="180" y="15" text-anchor="middle" dominant-baseline="middle" font-size="20px" font-family="'trebuchet ms', verdana, arial, sans-serif" font-weight="bold" fill="#1a192b">Skills Assessment</text><circle cx="180" cy="180" r="24" fill="none" stroke="#e0e0e0" stroke-width="1"/><circle cx="180" cy="180" r="48" fill="none" stroke="#e0e0e0" stroke-width="1"/><circle cx="180" cy="180" r="72" fill="none" stroke="#e0e0e0" stroke-width="1"/><circle cx="180" cy="180" r="96" fill="none" stroke="#e0e0e0" stroke-width="1"/><circle cx="180" cy="180" r="120" fill="none" stroke="#e0e0e0" stroke-width="1"/><line x1="180" y1="180" x2="180" y2="60" stroke="#333333" stroke-width="1"/><text x="180" y="40" text-anchor="middle" dominant-baseline="middle" font-size="14px" font-family="'trebuchet ms', verdana, arial, sans-serif" fill="#1a192b">Frontend</text><line x1="180" y1="180" x2="294.13" y2="142.92" stroke="#333333" stroke-width="1"/><text x="313.15" y="136.74" text-anchor="start" dominant-baseline="middle" font-size="14px" font-family="'trebuchet ms', verdana, arial, sans-serif" fill="#1a192b">Backend</text><line x1="180" y1="180" x2="250.53" y2="277.08" stroke="#333333" stroke-width="1"/><text x="262.29" y="293.26" text-anchor="start" dominant-baseline="middle" font-size="14px" font-family="'trebuchet ms', verdana, arial, sans-serif" fill="#1a192b">DevOps</text><line x1="180" y1="180" x2="109.47" y2="277.08" stroke="#333333" stroke-width="1"/><text x="97.71" y="293.26" text-anchor="end" dominant-baseline="middle" font-size="14px" font-family="'trebuchet ms', verdana, arial, sans-serif" fill="#1a192b">Design</text><line x1="180" y1="180" x2="65.87" y2="142.92" stroke="#333333" stroke-width="1"/><text x="46.85" y="136.74" text-anchor="end" dominant-baseline="middle" font-size="14px" font-family="'trebuchet ms', verdana, arial, sans-serif" fill="#1a192b">Testing</text><path d="M 180 60 L 271.3 150.33 L 222.32 238.25 L 151.79 218.83 L 88.7 150.33 Z" fill="rgba(31,119,180,0.3)" stroke="#1f77b4" stroke-width="2"/><circle cx="180" cy="60" r="4" fill="#1f77b4" stroke="#ffffff" stroke-width="1"/><circle cx="271.3" cy="150.33" r="4" fill="#1f77b4" stroke="#ffffff" stroke-width="1"/><circle cx="222.32" cy="238.25" r="4" fill="#1f77b4" stroke="#ffffff" stroke-width="1"/><circle cx="151.79" cy="218.83" r="4" fill="#1f77b4" stroke="#ffffff" stroke-width="1"/><circle cx="88.7" cy="150.33" r="4" fill="#1f77b4" stroke="#ffffff" stroke-width="1"/><path d="M 180 108 L 294.13 142.92 L 236.43 257.67 L 137.68 238.25 L 111.52 157.75 Z" fill="rgba(255,127,14,0.3)" stroke="#ff7f0e" stroke-width="2"/><circle cx="180" cy="108" r="4" fill="#ff7f0e" stroke="#ffffff" stroke-width="1"/><circle cx="294.13" cy="142.92" r="4" fill="#ff7f0e" stroke="#ffffff" stroke-width="1"/><circle cx="236.43" cy="257.67" r="4" fill="#ff7f0e" stroke="#ffffff" stroke-width="1"/><circle cx="137.68" cy="238.25" r="4" fill="#ff7f0e" stroke="#ffffff" stroke-width="1"/><circle cx="111.52" cy="157.75" r="4" fill="#ff7f0e" stroke="#ffffff" stroke-width="1"/><rect x="0" y="340" width="16" height="12" fill="#1f77b4"/><text x="24" y="346" text-anchor="start" dominant-baseline="middle" font-size="14px" font-family="'trebuchet ms', verdana, arial, sans-serif" fill="#1a192b">Alice</text><rect x="0" y="365" width="16" height="12" fill="#ff7f0e"/><text x="24" y="371" text-anchor="start" dominant-baseline="middle" font-size="14px" font-family="'trebuchet ms', verdana, arial, sans-serif" fill="#1a192b">Bob</text></g></svg>