<svg id="mermaid-svg" width="584" height="316" xmlns="http://www.w3.org/2000/svg" viewBox="0 0 584 316" style="max-width: 584px;" role="graphics-document document" xmlns:xlink="http://www.w3.org/1999/xlink"><rect width="584" height="316" fill="#ffffff" /><path d="M 96 8 C 186 8 186 8 276 8 L 276 95 C 186 95 186 95 96 95 Z" fill="#9370DB" stroke="none"/><path d="M 96 95 C 186 95 186 148.5 276 148.5 L 276 206.5 C 186 206.5 186 153 96 153 Z" fill="#9370DB" stroke="none"/><path d="M 96 163 C 186 163 186 95 276 95 L 276 138.5 C 186 138.5 186 206.5 96 206.5 Z" fill="#ff9800" stroke="none"/><path d="M 96 206.5 C 186 206.5 186 206.5 276 206.5 L 276 308 C 186 308 186 308 96 308 Z" fill="#ff9800" stroke="none"/><rect x="76" y="8" width="20" height="145" fill="#9370DB" stroke="#9370DB" stroke-width="1"/><text x="71" y="80.5" text-anchor="end" dominant-baseline="middle" font-size="15px" font-family="'trebuchet ms', verdana, arial, sans-serif" fill="#1a192b">Source A</text><rect x="276" y="8" width="20" height="130.5" fill="#5b9bd5" stroke="#9370DB" stroke-width="1"/><text x="301" y="73.25" text-anchor="start" dominant-baseline="middle" font-size="15px" font-family="'trebuchet ms', verdana, arial, sans-serif" fill="#1a192b">Target X</text><rect x="276" y="148.5" width="20" height="159.5" fill="#4caf50" stroke="#9370DB" stroke-width="1"/><text x="301" y="228.25" text-anchor="start" dominant-baseline="middle" font-size="15px" font-family="'trebuchet ms', verdana, arial, sans-serif" fill="#1a192b">Target Y</text><rect x="76" y="163" width="20" height="145" fill="#ff9800" stroke="#9370DB" stroke-width="1"/><text x="71" y="235.5" text-anchor="end" dominant-baseline="middle" font-size="15px" font-family="'trebuchet ms', verdana, arial, sans-serif" fill="#1a192b">Source B</text></svg>