<svg id="mermaid-svg" width="369.679993" height="575.2" xmlns="http://www.w3.org/2000/svg" viewBox="0 0 369.679993 575.2" style="max-width: 369.679993px;" role="graphics-document document" xmlns:xlink="http://www.w3.org/1999/xlink"><defs><marker id="arrowhead" refX="9" refY="3.5" markerWidth="10" markerHeight="7" orient="auto"><path d="M0,0 L10,3.5 L0,7 Z" class="arrowMarkerPath" style="stroke-width: 1; stroke-dasharray: 1, 0;"/></marker></defs><rect width="369.679993" height="575.2" fill="#ffffff" /><g transform="translate(8,8)"><line x1="144.44" y1="20" x2="144.44" y2="100" stroke="#1a192b" stroke-width="1"/><polygon points="144.44,100 140.44,93.07 148.44,93.07" fill="#1a192b"/><line x1="134.42" y1="140" x2="74.5" y2="259.6" stroke="#1a192b" stroke-width="1"/><polygon points="74.5,259.6 74.03,251.61 81.18,255.2" fill="#1a192b"/><rect x="74.46" y="181.8" width="60" height="16" fill="rgba(255,255,255,0.85)" stroke="none"/><text x="104.46" y="189.8" text-anchor="middle" dominant-baseline="middle" font-size="14px" font-family="'trebuchet ms', verdana, arial, sans-serif" fill="#1a192b">submit</text><line x1="60.69" y1="299.6" x2="37.99" y2="419.2" stroke="#1a192b" stroke-width="1"/><polygon points="37.99,419.2 35.36,411.65 43.22,413.14" fill="#1a192b"/><rect x="19.34" y="341.4" width="60" height="16" fill="rgba(255,255,255,0.85)" stroke="none"/><text x="49.34" y="349.4" text-anchor="middle" dominant-baseline="middle" font-size="14px" font-family="'trebuchet ms', verdana, arial, sans-serif" fill="#1a192b">complete</text><line x1="88.31" y1="299.6" x2="230.85" y2="419.2" stroke="#1a192b" stroke-width="1"/><polygon points="230.85,419.2 222.97,417.81 228.11,411.68" fill="#1a192b"/><rect x="129.58" y="341.4" width="60" height="16" fill="rgba(255,255,255,0.85)" stroke="none"/><text x="159.58" y="349.4" text-anchor="middle" dominant-baseline="middle" font-size="14px" font-family="'trebuchet ms', verdana, arial, sans-serif" fill="#1a192b">fail</text><path d="M 293.68 439.2 C 318.68 439.2, 343.68 414.2, 343.68 389.2 L 343.68 170 C 343.68 145, 203.64 120, 178.64 120" fill="none" stroke="#1a192b" stroke-width="1"/><polygon points="178.64,120 185.57,116 185.57,124" fill="#1a192b"/><text x="343.68" y="279.6" text-anchor="middle" dominant-baseline="middle" font-size="14px" font-family="'trebuchet ms', verdana, arial, sans-serif" fill="#666666">retry</text><line x1="34.2" y1="459.2" x2="34.2" y2="539.2" stroke="#1a192b" stroke-width="1"/><polygon points="34.2,539.2 30.2,532.27 38.2,532.27" fill="#1a192b"/><circle cx="144.44" cy="10" r="10" fill="#1a192b" stroke="#1a192b" stroke-width="1"/><rect x="110.24" y="100" width="68.4" height="40" rx="5" ry="5" fill="#ECECFF" stroke="#9370DB" stroke-width="1"/><text x="144.44" y="120" text-anchor="middle" dominant-baseline="middle" font-size="16px" font-family="'trebuchet ms', verdana, arial, sans-serif" fill="#1a192b">Idle</text><rect x="1.48" y="259.6" width="126" height="40" rx="5" ry="5" fill="#ECECFF" stroke="#9370DB" stroke-width="1"/><text x="64.48" y="279.6" text-anchor="middle" dominant-baseline="middle" font-size="16px" font-family="'trebuchet ms', verdana, arial, sans-serif" fill="#1a192b">Processing</text><rect x="0" y="419.2" width="68.4" height="40" rx="5" ry="5" fill="#ECECFF" stroke="#9370DB" stroke-width="1"/><text x="34.2" y="439.2" text-anchor="middle" dominant-baseline="middle" font-size="16px" font-family="'trebuchet ms', verdana, arial, sans-serif" fill="#1a192b">Done</text><rect x="215.68" y="419.2" width="78" height="40" rx="5" ry="5" fill="#ECECFF" stroke="#9370DB" stroke-width="1"/><text x="254.68" y="439.2" text-anchor="middle" dominant-baseline="middle" font-size="16px" font-family="'trebuchet ms', verdana, arial, sans-serif" fill="#1a192b">Error</text><circle cx="34.2" cy="549.2" r="10" fill="none" stroke="#1a192b" stroke-width="2"/><circle cx="34.2" cy="549.2" r="5" fill="#1a192b" stroke="#1a192b" stroke-width="1"/></g></svg>