<svg id="mermaid-svg" width="600" height="400" xmlns="http://www.w3.org/2000/svg" viewBox="0 0 600 400" style="max-width: 600px;" role="graphics-document document" xmlns:xlink="http://www.w3.org/1999/xlink"><rect width="600" height="400" fill="#ffffff" /><text x="300" y="23" text-anchor="middle" dominant-baseline="middle" font-size="20px" font-family="'trebuchet ms', verdana, arial, sans-serif" font-weight="bold" fill="#1a192b">&quot;Territory Map&quot;</text><path d="M 101 201 L 201 101 L 301 201 L 201 301 Z" fill="#ECECFF" stroke="#666666" stroke-width="1"/><path d="M 9 39 L 201 39 L 201 99 L 99 201 L 9 201 Z" fill="#ffffde" stroke="#666666" stroke-width="1"/><path d="M 203 39 L 591 39 L 591 201 L 303 201 L 203 101 Z" fill="#e8f4fd" stroke="#666666" stroke-width="1"/><path d="M 9 203 L 101 203 L 201 303 L 201 391 L 9 391 Z" fill="#e8f5e9" stroke="#666666" stroke-width="1"/><path d="M 203 301 L 301 203 L 591 203 L 591 391 L 203 391 Z" fill="#fff3e0" stroke="#666666" stroke-width="1"/><circle cx="200" cy="200" r="5" fill="#1a192b" stroke="#ffffff" stroke-width="2"/><text x="200" y="188" text-anchor="middle" dominant-baseline="bottom" font-size="14px" font-family="'trebuchet ms', verdana, arial, sans-serif" font-weight="bold" fill="#1a192b">HQ</text><circle cx="100" cy="100" r="5" fill="#1a192b" stroke="#ffffff" stroke-width="2"/><text x="100" y="88" text-anchor="middle" dominant-baseline="bottom" font-size="14px" font-family="'trebuchet ms', verdana, arial, sans-serif" font-weight="bold" fill="#1a192b">Branch A</text><circle cx="300" cy="100" r="5" fill="#1a192b" stroke="#ffffff" stroke-width="2"/><text x="300" y="88" text-anchor="middle" dominant-baseline="bottom" font-size="14px" font-family="'trebuchet ms', verdana, arial, sans-serif" font-weight="bold" fill="#1a192b">Branch B</text><circle cx="100" cy="300" r="5" fill="#1a192b" stroke="#ffffff" stroke-width="2"/><text x="100" y="288" text-anchor="middle" dominant-baseline="bottom" font-size="14px" font-family="'trebuchet ms', verdana, arial, sans-serif" font-weight="bold" fill="#1a192b">Branch C</text><circle cx="300" cy="300" r="5" fill="#1a192b" stroke="#ffffff" stroke-width="2"/><text x="300" y="288" text-anchor="middle" dominant-baseline="bottom" font-size="14px" font-family="'trebuchet ms', verdana, arial, sans-serif" font-weight="bold" fill="#1a192b">Branch D</text></svg>