<svg id="mermaid-svg" width="356.399997" height="480" xmlns="http://www.w3.org/2000/svg" viewBox="0 0 356.399997 480" style="max-width: 356.399997px;" role="graphics-document document" xmlns:xlink="http://www.w3.org/1999/xlink"><style>/* Mermaid skin: default */
#mermaid-svg{
  font-family:\"trebuchet ms\", verdana, arial, sans-serif;
  font-size:16px;
  fill:#334155;
}
#mermaid-svg .flow-node-shape{
  fill:#eff6ff;
  stroke:#3b82f6;
  stroke-width:1px;
}
#mermaid-svg .flow-node-label,
#mermaid-svg .flow-node-label p{
  color:#334155;
  fill:#334155;
  margin:0;
}
#mermaid-svg .flow-edge{
  stroke:#475569;
  stroke-width:2.0px;
  fill:none;
}
#mermaid-svg .flow-edge-dotted{stroke-dasharray:2;}
#mermaid-svg .flow-edge-thick{stroke-width:3.5px;}
#mermaid-svg .flow-edge-label-box{
  fill:rgba(241,245,249,0.9);
  stroke:none;
  opacity:0.9;
}
#mermaid-svg .flow-edge-label,
#mermaid-svg .flow-edge-label p{
  color:#334155;
  fill:#334155;
  margin:0;
  text-align:center;
}
#mermaid-svg .flow-subgraph-box{
  fill:rgba(239,246,255,0.2);
  stroke:#bfdbfe;
  stroke-width:1px;
}
#mermaid-svg .flow-subgraph-title{
  fill:#2563eb;
  font-weight:600;
  font-size:15px;
}
#mermaid-svg .marker{
  fill:#475569;
  stroke:#475569;
}</style><defs><marker id="mermaid-svg_flowchart-v2-pointEnd" class="marker flowchart-v2" viewBox="0 0 10 10" refX="5" refY="5" markerUnits="userSpaceOnUse" markerWidth="8" markerHeight="8" orient="auto"><path d="M 0 0 L 10 5 L 0 10 z" class="arrowMarkerPath" style="stroke-width: 1; stroke-dasharray: 1, 0;"/></marker><marker id="mermaid-svg_flowchart-v2-pointStart" class="marker flowchart-v2" viewBox="0 0 10 10" refX="4.5" refY="5" markerUnits="userSpaceOnUse" markerWidth="8" markerHeight="8" orient="auto"><path d="M 0 5 L 10 10 L 10 0 z" class="arrowMarkerPath" style="stroke-width: 1; stroke-dasharray: 1, 0;"/></marker><marker id="mermaid-svg_flowchart-v2-circleEnd" class="marker flowchart-v2" viewBox="0 0 10 10" refX="11" refY="5" markerUnits="userSpaceOnUse" markerWidth="11" markerHeight="11" orient="auto"><circle cx="5" cy="5" r="5" class="arrowMarkerPath" style="stroke-width: 1; stroke-dasharray: 1, 0;"/></marker><marker id="mermaid-svg_flowchart-v2-circleStart" class="marker flowchart-v2" viewBox="0 0 10 10" refX="-1" refY="5" markerUnits="userSpaceOnUse" markerWidth="11" markerHeight="11" orient="auto"><circle cx="5" cy="5" r="5" class="arrowMarkerPath" style="stroke-width: 1; stroke-dasharray: 1, 0;"/></marker><marker id="mermaid-svg_flowchart-v2-crossEnd" class="marker cross flowchart-v2" viewBox="0 0 11 11" refX="12" refY="5.2" markerUnits="userSpaceOnUse" markerWidth="11" markerHeight="11" orient="auto"><path d="M 1,1 l 9,9 M 10,1 l -9,9" class="arrowMarkerPath" style="stroke-width: 2; stroke-dasharray: 1, 0;"/></marker><marker id="mermaid-svg_flowchart-v2-crossStart" class="marker cross flowchart-v2" viewBox="0 0 11 11" refX="-1" refY="5.2" markerUnits="userSpaceOnUse" markerWidth="11" markerHeight="11" orient="auto"><path d="M 1,1 l 9,9 M 10,1 l -9,9" class="arrowMarkerPath" style="stroke-width: 2; stroke-dasharray: 1, 0;"/></marker><filter id="drop-shadow"><feDropShadow dx="0" dy="1" stdDeviation="2" flood-opacity="0.08" /></filter></defs><rect width="356.399997" height="480" fill="#ffffff" /><g transform="translate(8,8)"><rect x="10" y="237" width="330.4" height="132" rx="8" ry="8" class="flow-subgraph-box flow-subgraph-depth-0"/><text x="175.2" y="251" text-anchor="middle" dominant-baseline="middle" fill="#1a192b" class="flow-subgraph-title">Content</text><path d="M175.2,78 L175.2,82.17 C175.2,86.33 175.2,94.67 175.2,103 C175.2,111.33 175.2,119.67 175.2,123.83 L175.2,128" fill="none" marker-end="url(#mermaid-svg_flowchart-v2-pointEnd)" class="flow-edge flow-edge-solid flow-edge-arrow"/><path d="M175.2,182 L175.2,186.17 C175.2,190.33 175.2,198.67 175.2,207 C175.2,215.33 175.2,223.67 175.2,232 C175.2,240.33 175.2,248.67 175.2,252.83 L175.2,257" fill="none" marker-end="url(#mermaid-svg_flowchart-v2-pointEnd)" class="flow-edge flow-edge-solid flow-edge-arrow"/><path d="M175.2,335 L175.2,339.17 C175.2,343.33 175.2,351.67 175.2,360 C175.2,368.33 175.2,376.67 175.2,385 C175.2,393.33 175.2,401.67 175.2,405.83 L175.2,410" fill="none" marker-end="url(#mermaid-svg_flowchart-v2-pointEnd)" class="flow-edge flow-edge-solid flow-edge-arrow"/><path d="M25.4,0 H325 Q330,0 330,5 V73 Q330,78 325,78 H25.4 Q20.4,78 20.4,73 V5 Q20.4,0 25.4,0 Z" class="flow-node flow-node-shape flow-node-shape-rectangle"/><text x="175.2" y="28.5" text-anchor="middle" fill="#1a192b" class="flow-node-label"><tspan x="175.2" dy="0" fill="#1a192b">My App - Home - Settings -</tspan><tspan x="175.2" dy="21" fill="#1a192b">Help</tspan></text><path d="M107,128 H243.4 Q248.4,128 248.4,133 V177 Q248.4,182 243.4,182 H107 Q102,182 102,177 V133 Q102,128 107,128 Z" class="flow-node flow-node-shape flow-node-shape-rectangle"/><text x="175.2" y="155" text-anchor="middle" dominant-baseline="central" fill="#1a192b" class="flow-node-label">Search...</text><path d="M35,257 H315.4 Q320.4,257 320.4,262 V330 Q320.4,335 315.4,335 H35 Q30,335 30,330 V262 Q30,257 35,257 Z" class="flow-node flow-node-shape flow-node-shape-rectangle"/><text x="175.2" y="285.5" text-anchor="middle" fill="#1a192b" class="flow-node-label"><tspan x="175.2" dy="0" fill="#1a192b">Welcome Back\nYou have 3</tspan><tspan x="175.2" dy="21" fill="#1a192b">notifications</tspan></text><path d="M97.4,410 H253 Q258,410 258,415 V459 Q258,464 253,464 H97.4 Q92.4,464 92.4,459 V415 Q92.4,410 97.4,410 Z" class="flow-node flow-node-shape flow-node-shape-rectangle"/><text x="175.2" y="437" text-anchor="middle" dominant-baseline="central" fill="#1a192b" class="flow-node-label">Get Started</text></g></svg>