<svg id="mermaid-svg" width="596" height="466" xmlns="http://www.w3.org/2000/svg" viewBox="0 0 596 466" style="max-width: 596px;" role="graphics-document document" xmlns:xlink="http://www.w3.org/1999/xlink"><rect width="596" height="466" fill="#ffffff" /><text x="298" y="23" text-anchor="middle" dominant-baseline="middle" font-size="20px" font-family="'trebuchet ms', verdana, arial, sans-serif" font-weight="bold" fill="#1a192b">Sales Revenue</text><line x1="68" y1="398" x2="568" y2="398" stroke="#e0e0e0" stroke-width="1"/><text x="58" y="398" text-anchor="end" dominant-baseline="middle" font-size="14px" font-family="'trebuchet ms', verdana, arial, sans-serif" fill="#666666">0</text><line x1="68" y1="338" x2="568" y2="338" stroke="#e0e0e0" stroke-width="1"/><text x="58" y="338" text-anchor="end" dominant-baseline="middle" font-size="14px" font-family="'trebuchet ms', verdana, arial, sans-serif" fill="#666666">20</text><line x1="68" y1="278" x2="568" y2="278" stroke="#e0e0e0" stroke-width="1"/><text x="58" y="278" text-anchor="end" dominant-baseline="middle" font-size="14px" font-family="'trebuchet ms', verdana, arial, sans-serif" fill="#666666">40</text><line x1="68" y1="218" x2="568" y2="218" stroke="#e0e0e0" stroke-width="1"/><text x="58" y="218" text-anchor="end" dominant-baseline="middle" font-size="14px" font-family="'trebuchet ms', verdana, arial, sans-serif" fill="#666666">60</text><line x1="68" y1="158" x2="568" y2="158" stroke="#e0e0e0" stroke-width="1"/><text x="58" y="158" text-anchor="end" dominant-baseline="middle" font-size="14px" font-family="'trebuchet ms', verdana, arial, sans-serif" fill="#666666">80</text><line x1="68" y1="98" x2="568" y2="98" stroke="#e0e0e0" stroke-width="1"/><text x="58" y="98" text-anchor="end" dominant-baseline="middle" font-size="14px" font-family="'trebuchet ms', verdana, arial, sans-serif" fill="#666666">100</text><line x1="68" y1="98" x2="68" y2="398" stroke="#333333" stroke-width="2"/><line x1="68" y1="398" x2="568" y2="398" stroke="#333333" stroke-width="2"/><text x="118" y="418" text-anchor="middle" dominant-baseline="middle" font-size="14px" font-family="'trebuchet ms', verdana, arial, sans-serif" fill="#1a192b">Jan</text><text x="218" y="418" text-anchor="middle" dominant-baseline="middle" font-size="14px" font-family="'trebuchet ms', verdana, arial, sans-serif" fill="#1a192b">Feb</text><text x="318" y="418" text-anchor="middle" dominant-baseline="middle" font-size="14px" font-family="'trebuchet ms', verdana, arial, sans-serif" fill="#1a192b">Mar</text><text x="418" y="418" text-anchor="middle" dominant-baseline="middle" font-size="14px" font-family="'trebuchet ms', verdana, arial, sans-serif" fill="#1a192b">Apr</text><text x="518" y="418" text-anchor="middle" dominant-baseline="middle" font-size="14px" font-family="'trebuchet ms', verdana, arial, sans-serif" fill="#1a192b">May</text><g transform="rotate(-90, 23, 248)"><text x="23" y="248" text-anchor="middle" dominant-baseline="middle" font-size="16px" font-family="'trebuchet ms', verdana, arial, sans-serif" fill="#1a192b">Revenue (k$)</text></g><rect x="78" y="368" width="78" height="30" rx="2" ry="2" fill="#9370DB" stroke="none"/><rect x="178" y="308" width="78" height="90" rx="2" ry="2" fill="#9370DB" stroke="none"/><rect x="278" y="248" width="78" height="150" rx="2" ry="2" fill="#9370DB" stroke="none"/><rect x="378" y="188" width="78" height="210" rx="2" ry="2" fill="#9370DB" stroke="none"/><rect x="478" y="128" width="78" height="270" rx="2" ry="2" fill="#9370DB" stroke="none"/><path d="M 118 353 L 218 323 L 318 263 L 418 203 L 518 143" fill="none" stroke="#e74c3c" stroke-width="2"/><circle cx="118" cy="353" r="4" fill="#e74c3c" stroke="#ffffff" stroke-width="2"/><circle cx="218" cy="323" r="4" fill="#e74c3c" stroke="#ffffff" stroke-width="2"/><circle cx="318" cy="263" r="4" fill="#e74c3c" stroke="#ffffff" stroke-width="2"/><circle cx="418" cy="203" r="4" fill="#e74c3c" stroke="#ffffff" stroke-width="2"/><circle cx="518" cy="143" r="4" fill="#e74c3c" stroke="#ffffff" stroke-width="2"/></svg>