<svg id="mermaid-svg" width="100%" xmlns="http://www.w3.org/2000/svg" viewBox="0 0 506 1006" style="max-width: 506px;" role="graphics-document document" xmlns:xlink="http://www.w3.org/1999/xlink"><style>/* Mermaid skin: default */
#mermaid-svg{
  font-family:\"trebuchet ms\", verdana, arial, sans-serif;
  font-size:16px;
  fill:#333;
}
#mermaid-svg .flow-node-shape{
  fill:#ECECFF;
  stroke:#9370DB;
  stroke-width:1px;
}
#mermaid-svg .flow-node-label,
#mermaid-svg .flow-node-label p{
  color:#333;
  fill:#333;
  margin:0;
}
#mermaid-svg .flow-edge{
  stroke:#333333;
  stroke-width:2.0px;
  fill:none;
}
#mermaid-svg .flow-edge-dotted{stroke-dasharray:2;}
#mermaid-svg .flow-edge-thick{stroke-width:3.5px;}
#mermaid-svg .flow-edge-label-box{
  fill:rgba(232,232,232,0.8);
  stroke:none;
  opacity:0.9;
}
#mermaid-svg .flow-edge-label,
#mermaid-svg .flow-edge-label p{
  color:#333;
  fill:#333;
  margin:0;
  text-align:center;
}
#mermaid-svg .flow-subgraph-box{
  fill:#ffffde;
  stroke:#aaaa33;
  stroke-width:1px;
}
#mermaid-svg .flow-subgraph-title{
  fill:#333;
  font-weight:600;
  font-size:15px;
}
#mermaid-svg .marker{
  fill:#333333;
  stroke:#333333;
}</style><defs><marker id="mermaid-svg_flowchart-v2-pointEnd" class="marker flowchart-v2" viewBox="0 0 10 10" refX="5" refY="5" markerUnits="userSpaceOnUse" markerWidth="8" markerHeight="8" orient="auto"><path d="M 0 0 L 10 5 L 0 10 z" class="arrowMarkerPath" style="stroke-width: 1; stroke-dasharray: 1, 0;"/></marker><marker id="mermaid-svg_flowchart-v2-pointStart" class="marker flowchart-v2" viewBox="0 0 10 10" refX="4.5" refY="5" markerUnits="userSpaceOnUse" markerWidth="8" markerHeight="8" orient="auto"><path d="M 0 5 L 10 10 L 10 0 z" class="arrowMarkerPath" style="stroke-width: 1; stroke-dasharray: 1, 0;"/></marker><marker id="mermaid-svg_flowchart-v2-circleEnd" class="marker flowchart-v2" viewBox="0 0 10 10" refX="11" refY="5" markerUnits="userSpaceOnUse" markerWidth="11" markerHeight="11" orient="auto"><circle cx="5" cy="5" r="5" class="arrowMarkerPath" style="stroke-width: 1; stroke-dasharray: 1, 0;"/></marker><marker id="mermaid-svg_flowchart-v2-circleStart" class="marker flowchart-v2" viewBox="0 0 10 10" refX="-1" refY="5" markerUnits="userSpaceOnUse" markerWidth="11" markerHeight="11" orient="auto"><circle cx="5" cy="5" r="5" class="arrowMarkerPath" style="stroke-width: 1; stroke-dasharray: 1, 0;"/></marker><marker id="mermaid-svg_flowchart-v2-crossEnd" class="marker cross flowchart-v2" viewBox="0 0 11 11" refX="12" refY="5.2" markerUnits="userSpaceOnUse" markerWidth="11" markerHeight="11" orient="auto"><path d="M 1,1 l 9,9 M 10,1 l -9,9" class="arrowMarkerPath" style="stroke-width: 2; stroke-dasharray: 1, 0;"/></marker><marker id="mermaid-svg_flowchart-v2-crossStart" class="marker cross flowchart-v2" viewBox="0 0 11 11" refX="-1" refY="5.2" markerUnits="userSpaceOnUse" markerWidth="11" markerHeight="11" orient="auto"><path d="M 1,1 l 9,9 M 10,1 l -9,9" class="arrowMarkerPath" style="stroke-width: 2; stroke-dasharray: 1, 0;"/></marker><filter id="drop-shadow"><feDropShadow dx="0" dy="1" stdDeviation="2" flood-opacity="0.08" /></filter></defs><g transform="translate(8,8)"><path d="M353.33,54 Q410,79 410,99" fill="none" marker-end="url(#mermaid-svg_flowchart-v2-pointEnd)" class="flow-edge flow-edge-solid flow-edge-arrow"/><path d="M326.67,54 C270,113.67 270,148.33 263.25,203.26" fill="none" marker-end="url(#mermaid-svg_flowchart-v2-pointEnd)" class="flow-edge flow-edge-solid flow-edge-arrow"/><path d="M370,154.11 Q320,183 292.26,204.9" fill="none" marker-end="url(#mermaid-svg_flowchart-v2-pointEnd)" class="flow-edge flow-edge-solid flow-edge-arrow"/><path d="M412.6,158 Q415,183 415,203" fill="none" marker-end="url(#mermaid-svg_flowchart-v2-pointEnd)" class="flow-edge flow-edge-solid flow-edge-arrow"/><path d="M298.37,262 Q320,287 365.67,313.39" fill="none" marker-end="url(#mermaid-svg_flowchart-v2-pointEnd)" class="flow-edge flow-edge-solid flow-edge-arrow"/><path d="M415,262 Q415,287 413.07,307.02" fill="none" marker-end="url(#mermaid-svg_flowchart-v2-pointEnd)" class="flow-edge flow-edge-solid flow-edge-arrow"/><path d="M53.33,262 Q85,287 85,307" fill="none" marker-end="url(#mermaid-svg_flowchart-v2-pointEnd)" class="flow-edge flow-edge-solid flow-edge-arrow"/><path d="M26.67,262 C15,321.67 15,356.33 42.74,412.9" fill="none" marker-end="url(#mermaid-svg_flowchart-v2-pointEnd)" class="flow-edge flow-edge-solid flow-edge-arrow"/><path d="M85,366 Q85,391 75.45,411.47" fill="none" marker-end="url(#mermaid-svg_flowchart-v2-pointEnd)" class="flow-edge flow-edge-solid flow-edge-arrow"/><path d="M125,358.81 Q190,391 190,411" fill="none" marker-end="url(#mermaid-svg_flowchart-v2-pointEnd)" class="flow-edge flow-edge-solid flow-edge-arrow"/><path d="M60,470 Q60,495 105.67,521.39" fill="none" marker-end="url(#mermaid-svg_flowchart-v2-pointEnd)" class="flow-edge flow-edge-solid flow-edge-arrow"/><path d="M190,470 Q190,495 173.82,516.04" fill="none" marker-end="url(#mermaid-svg_flowchart-v2-pointEnd)" class="flow-edge flow-edge-solid flow-edge-arrow"/><path d="M430.77,470 Q450,495 450,515" fill="none" marker-end="url(#mermaid-svg_flowchart-v2-pointEnd)" class="flow-edge flow-edge-solid flow-edge-arrow"/><path d="M370,460.33 C290,529.67 290,564.33 303.89,619.84" fill="none" marker-end="url(#mermaid-svg_flowchart-v2-pointEnd)" class="flow-edge flow-edge-solid flow-edge-arrow"/><path d="M436.67,574 L337.83,621.82" fill="none" marker-end="url(#mermaid-svg_flowchart-v2-pointEnd)" class="flow-edge flow-edge-solid flow-edge-arrow"/><path d="M463.33,574 Q450,599 450,619" fill="none" marker-end="url(#mermaid-svg_flowchart-v2-pointEnd)" class="flow-edge flow-edge-solid flow-edge-arrow"/><path d="M320,678 Q320,703 365.67,729.39" fill="none" marker-end="url(#mermaid-svg_flowchart-v2-pointEnd)" class="flow-edge flow-edge-solid flow-edge-arrow"/><path d="M450,678 Q450,703 433.82,724.04" fill="none" marker-end="url(#mermaid-svg_flowchart-v2-pointEnd)" class="flow-edge flow-edge-solid flow-edge-arrow"/><path d="M163.33,678 Q190,703 190,723" fill="none" marker-end="url(#mermaid-svg_flowchart-v2-pointEnd)" class="flow-edge flow-edge-solid flow-edge-arrow"/><path d="M136.67,678 C115,737.67 115,772.33 108.25,827.26" fill="none" marker-end="url(#mermaid-svg_flowchart-v2-pointEnd)" class="flow-edge flow-edge-solid flow-edge-arrow"/><path d="M176.67,782 Q160,807 136.98,828.58" fill="none" marker-end="url(#mermaid-svg_flowchart-v2-pointEnd)" class="flow-edge flow-edge-solid flow-edge-arrow"/><path d="M203.33,782 Q250,807 360.26,843.99" fill="none" marker-end="url(#mermaid-svg_flowchart-v2-pointEnd)" class="flow-edge flow-edge-solid flow-edge-arrow"/><path d="M120,886 Q120,911 235.24,948.45" fill="none" marker-end="url(#mermaid-svg_flowchart-v2-pointEnd)" class="flow-edge flow-edge-solid flow-edge-arrow"/><path d="M405,886 Q405,911 324.62,944.44" fill="none" marker-end="url(#mermaid-svg_flowchart-v2-pointEnd)" class="flow-edge flow-edge-solid flow-edge-arrow"/><path d="M235,252.33 C155,321.67 155,356.33 104.39,418.7" fill="none" marker-end="url(#mermaid-svg_flowchart-v2-pointEnd)" class="flow-edge flow-edge-solid flow-edge-arrow"/><path d="M410,366 L410,411" fill="none" marker-end="url(#mermaid-svg_flowchart-v2-pointEnd)" class="flow-edge flow-edge-solid flow-edge-arrow"/><path d="M150,574 L150,619" fill="none" marker-end="url(#mermaid-svg_flowchart-v2-pointEnd)" class="flow-edge flow-edge-solid flow-edge-arrow"/><path d="M410,782 Q410,807 408.07,827.02" fill="none" marker-end="url(#mermaid-svg_flowchart-v2-pointEnd)" class="flow-edge flow-edge-solid flow-edge-arrow"/><path d="M300,0 H380 V54 H300 Z" class="flow-node flow-node-shape flow-node-shape-rectangle"/><text x="340" y="27" text-anchor="middle" dominant-baseline="central" class="flow-node-label">n0</text><path d="M370,104 H450 V158 H370 Z" class="flow-node flow-node-shape flow-node-shape-rectangle"/><text x="410" y="131" text-anchor="middle" dominant-baseline="central" class="flow-node-label">n1</text><path d="M235,208 H315 V262 H235 Z" class="flow-node flow-node-shape flow-node-shape-rectangle"/><text x="275" y="235" text-anchor="middle" dominant-baseline="central" class="flow-node-label">n2</text><path d="M375,208 H455 V262 H375 Z" class="flow-node flow-node-shape flow-node-shape-rectangle"/><text x="415" y="235" text-anchor="middle" dominant-baseline="central" class="flow-node-label">n3</text><path d="M370,312 H450 V366 H370 Z" class="flow-node flow-node-shape flow-node-shape-rectangle"/><text x="410" y="339" text-anchor="middle" dominant-baseline="central" class="flow-node-label">n4</text><path d="M0,208 H80 V262 H0 Z" class="flow-node flow-node-shape flow-node-shape-rectangle"/><text x="40" y="235" text-anchor="middle" dominant-baseline="central" class="flow-node-label">n5</text><path d="M45,312 H125 V366 H45 Z" class="flow-node flow-node-shape flow-node-shape-rectangle"/><text x="85" y="339" text-anchor="middle" dominant-baseline="central" class="flow-node-label">n6</text><path d="M20,416 H100 V470 H20 Z" class="flow-node flow-node-shape flow-node-shape-rectangle"/><text x="60" y="443" text-anchor="middle" dominant-baseline="central" class="flow-node-label">n7</text><path d="M150,416 H230 V470 H150 Z" class="flow-node flow-node-shape flow-node-shape-rectangle"/><text x="190" y="443" text-anchor="middle" dominant-baseline="central" class="flow-node-label">n8</text><path d="M110,520 H190 V574 H110 Z" class="flow-node flow-node-shape flow-node-shape-rectangle"/><text x="150" y="547" text-anchor="middle" dominant-baseline="central" class="flow-node-label">n9</text><path d="M370,416 H450 V470 H370 Z" class="flow-node flow-node-shape flow-node-shape-rectangle"/><text x="410" y="443" text-anchor="middle" dominant-baseline="central" class="flow-node-label">n10</text><path d="M410,520 H490 V574 H410 Z" class="flow-node flow-node-shape flow-node-shape-rectangle"/><text x="450" y="547" text-anchor="middle" dominant-baseline="central" class="flow-node-label">n11</text><path d="M280,624 H360 V678 H280 Z" class="flow-node flow-node-shape flow-node-shape-rectangle"/><text x="320" y="651" text-anchor="middle" dominant-baseline="central" class="flow-node-label">n12</text><path d="M410,624 H490 V678 H410 Z" class="flow-node flow-node-shape flow-node-shape-rectangle"/><text x="450" y="651" text-anchor="middle" dominant-baseline="central" class="flow-node-label">n13</text><path d="M370,728 H450 V782 H370 Z" class="flow-node flow-node-shape flow-node-shape-rectangle"/><text x="410" y="755" text-anchor="middle" dominant-baseline="central" class="flow-node-label">n14</text><path d="M110,624 H190 V678 H110 Z" class="flow-node flow-node-shape flow-node-shape-rectangle"/><text x="150" y="651" text-anchor="middle" dominant-baseline="central" class="flow-node-label">n15</text><path d="M150,728 H230 V782 H150 Z" class="flow-node flow-node-shape flow-node-shape-rectangle"/><text x="190" y="755" text-anchor="middle" dominant-baseline="central" class="flow-node-label">n16</text><path d="M80,832 H160 V886 H80 Z" class="flow-node flow-node-shape flow-node-shape-rectangle"/><text x="120" y="859" text-anchor="middle" dominant-baseline="central" class="flow-node-label">n17</text><path d="M365,832 H445 V886 H365 Z" class="flow-node flow-node-shape flow-node-shape-rectangle"/><text x="405" y="859" text-anchor="middle" dominant-baseline="central" class="flow-node-label">n18</text><path d="M240,936 H320 V990 H240 Z" class="flow-node flow-node-shape flow-node-shape-rectangle"/><text x="280" y="963" text-anchor="middle" dominant-baseline="central" class="flow-node-label">n19</text></g></svg>