<svg id="mermaid-svg" width="100%" xmlns="http://www.w3.org/2000/svg" viewBox="0 0 481 590" style="max-width: 481px;" role="graphics-document document" xmlns:xlink="http://www.w3.org/1999/xlink"><style>/* Mermaid skin: default */
#mermaid-svg{
  font-family:\"trebuchet ms\", verdana, arial, sans-serif;
  font-size:16px;
  fill:#333;
}
#mermaid-svg .flow-node-shape{
  fill:#ECECFF;
  stroke:#9370DB;
  stroke-width:1px;
}
#mermaid-svg .flow-node-label,
#mermaid-svg .flow-node-label p{
  color:#333;
  fill:#333;
  margin:0;
}
#mermaid-svg .flow-edge{
  stroke:#333333;
  stroke-width:2.0px;
  fill:none;
}
#mermaid-svg .flow-edge-dotted{stroke-dasharray:2;}
#mermaid-svg .flow-edge-thick{stroke-width:3.5px;}
#mermaid-svg .flow-edge-label-box{
  fill:rgba(232,232,232,0.8);
  stroke:none;
  opacity:0.9;
}
#mermaid-svg .flow-edge-label,
#mermaid-svg .flow-edge-label p{
  color:#333;
  fill:#333;
  margin:0;
  text-align:center;
}
#mermaid-svg .flow-subgraph-box{
  fill:#ffffde;
  stroke:#aaaa33;
  stroke-width:1px;
}
#mermaid-svg .flow-subgraph-title{
  fill:#333;
  font-weight:600;
  font-size:15px;
}
#mermaid-svg .marker{
  fill:#333333;
  stroke:#333333;
}</style><defs><marker id="mermaid-svg_flowchart-v2-pointEnd" class="marker flowchart-v2" viewBox="0 0 10 10" refX="5" refY="5" markerUnits="userSpaceOnUse" markerWidth="8" markerHeight="8" orient="auto"><path d="M 0 0 L 10 5 L 0 10 z" class="arrowMarkerPath" style="stroke-width: 1; stroke-dasharray: 1, 0;"/></marker><marker id="mermaid-svg_flowchart-v2-pointStart" class="marker flowchart-v2" viewBox="0 0 10 10" refX="4.5" refY="5" markerUnits="userSpaceOnUse" markerWidth="8" markerHeight="8" orient="auto"><path d="M 0 5 L 10 10 L 10 0 z" class="arrowMarkerPath" style="stroke-width: 1; stroke-dasharray: 1, 0;"/></marker><marker id="mermaid-svg_flowchart-v2-circleEnd" class="marker flowchart-v2" viewBox="0 0 10 10" refX="11" refY="5" markerUnits="userSpaceOnUse" markerWidth="11" markerHeight="11" orient="auto"><circle cx="5" cy="5" r="5" class="arrowMarkerPath" style="stroke-width: 1; stroke-dasharray: 1, 0;"/></marker><marker id="mermaid-svg_flowchart-v2-circleStart" class="marker flowchart-v2" viewBox="0 0 10 10" refX="-1" refY="5" markerUnits="userSpaceOnUse" markerWidth="11" markerHeight="11" orient="auto"><circle cx="5" cy="5" r="5" class="arrowMarkerPath" style="stroke-width: 1; stroke-dasharray: 1, 0;"/></marker><marker id="mermaid-svg_flowchart-v2-crossEnd" class="marker cross flowchart-v2" viewBox="0 0 11 11" refX="12" refY="5.2" markerUnits="userSpaceOnUse" markerWidth="11" markerHeight="11" orient="auto"><path d="M 1,1 l 9,9 M 10,1 l -9,9" class="arrowMarkerPath" style="stroke-width: 2; stroke-dasharray: 1, 0;"/></marker><marker id="mermaid-svg_flowchart-v2-crossStart" class="marker cross flowchart-v2" viewBox="0 0 11 11" refX="-1" refY="5.2" markerUnits="userSpaceOnUse" markerWidth="11" markerHeight="11" orient="auto"><path d="M 1,1 l 9,9 M 10,1 l -9,9" class="arrowMarkerPath" style="stroke-width: 2; stroke-dasharray: 1, 0;"/></marker><filter id="drop-shadow"><feDropShadow dx="0" dy="1" stdDeviation="2" flood-opacity="0.08" /></filter></defs><g transform="translate(8,8)"><path d="M285.96,54 C310,113.67 310,148.33 263.79,222.74" fill="none" marker-end="url(#mermaid-svg_flowchart-v2-pointEnd)" class="flow-edge flow-edge-solid flow-edge-arrow"/><path d="M175,158 Q175,183 193.36,204.22" fill="none" marker-end="url(#mermaid-svg_flowchart-v2-pointEnd)" class="flow-edge flow-edge-solid flow-edge-arrow"/><path d="M220,18 C105,148.33 105,217.67 111.75,307.26" fill="none" marker-end="url(#mermaid-svg_flowchart-v2-pointEnd)" class="flow-edge flow-edge-solid flow-edge-arrow"/><path d="M135,157 C95,217.67 95,252.33 88.25,307.26" fill="none" marker-end="url(#mermaid-svg_flowchart-v2-pointEnd)" class="flow-edge flow-edge-solid flow-edge-arrow"/><path d="M300,40.87 C410,148.33 410,217.67 396.11,307.84" fill="none" marker-end="url(#mermaid-svg_flowchart-v2-pointEnd)" class="flow-edge flow-edge-solid flow-edge-arrow"/><path d="M215,142.89 C350,217.67 350,252.33 363.89,307.84" fill="none" marker-end="url(#mermaid-svg_flowchart-v2-pointEnd)" class="flow-edge flow-edge-solid flow-edge-arrow"/><path d="M206.67,262 C175,321.67 175,356.33 166.86,411.36" fill="none" marker-end="url(#mermaid-svg_flowchart-v2-pointEnd)" class="flow-edge flow-edge-solid flow-edge-arrow"/><path d="M210,357.91 Q140,391 144.02,411.1" fill="none" marker-end="url(#mermaid-svg_flowchart-v2-pointEnd)" class="flow-edge flow-edge-solid flow-edge-arrow"/><path d="M260,244 C450,321.67 450,356.33 399.39,418.7" fill="none" marker-end="url(#mermaid-svg_flowchart-v2-pointEnd)" class="flow-edge flow-edge-solid flow-edge-arrow"/><path d="M290,365 L364.14,413.27" fill="none" marker-end="url(#mermaid-svg_flowchart-v2-pointEnd)" class="flow-edge flow-edge-solid flow-edge-arrow"/><path d="M86.67,366 C70,425.67 70,460.33 56.11,515.84" fill="none" marker-end="url(#mermaid-svg_flowchart-v2-pointEnd)" class="flow-edge flow-edge-solid flow-edge-arrow"/><path d="M105,461.91 Q35,495 28.25,515.26" fill="none" marker-end="url(#mermaid-svg_flowchart-v2-pointEnd)" class="flow-edge flow-edge-solid flow-edge-arrow"/><path d="M140,356.33 C220,425.67 220,460.33 192.26,516.9" fill="none" marker-end="url(#mermaid-svg_flowchart-v2-pointEnd)" class="flow-edge flow-edge-solid flow-edge-arrow"/><path d="M145,470 Q145,495 158.89,515.84" fill="none" marker-end="url(#mermaid-svg_flowchart-v2-pointEnd)" class="flow-edge flow-edge-solid flow-edge-arrow"/><path d="M420,365 C460,425.67 460,460.33 441.61,516.22" fill="none" marker-end="url(#mermaid-svg_flowchart-v2-pointEnd)" class="flow-edge flow-edge-solid flow-edge-arrow"/><path d="M355,470 Q355,495 407.09,517.98" fill="none" marker-end="url(#mermaid-svg_flowchart-v2-pointEnd)" class="flow-edge flow-edge-solid flow-edge-arrow"/><path d="M220,36 Q175,79 175,99" fill="none" marker-end="url(#mermaid-svg_flowchart-v2-pointEnd)" class="flow-edge flow-edge-solid flow-edge-arrow"/><path d="M233.33,262 Q250,287 250,307" fill="none" marker-end="url(#mermaid-svg_flowchart-v2-pointEnd)" class="flow-edge flow-edge-solid flow-edge-arrow"/><path d="M113.33,366 Q130,391 125.98,411.1" fill="none" marker-end="url(#mermaid-svg_flowchart-v2-pointEnd)" class="flow-edge flow-edge-solid flow-edge-arrow"/><path d="M348.85,366 Q320,391 338.39,412.22" fill="none" marker-end="url(#mermaid-svg_flowchart-v2-pointEnd)" class="flow-edge flow-edge-solid flow-edge-arrow"/><path d="M220,0 H300 V54 H220 Z" class="flow-node flow-node-shape flow-node-shape-rectangle"/><text x="260" y="27" text-anchor="middle" dominant-baseline="central" class="flow-node-label">n0</text><path d="M180,208 H260 V262 H180 Z" class="flow-node flow-node-shape flow-node-shape-rectangle"/><text x="220" y="235" text-anchor="middle" dominant-baseline="central" class="flow-node-label">n2</text><path d="M135,104 H215 V158 H135 Z" class="flow-node flow-node-shape flow-node-shape-rectangle"/><text x="175" y="131" text-anchor="middle" dominant-baseline="central" class="flow-node-label">n1</text><path d="M60,312 H140 V366 H60 Z" class="flow-node flow-node-shape flow-node-shape-rectangle"/><text x="100" y="339" text-anchor="middle" dominant-baseline="central" class="flow-node-label">n3</text><path d="M340,312 H420 V366 H340 Z" class="flow-node flow-node-shape flow-node-shape-rectangle"/><text x="380" y="339" text-anchor="middle" dominant-baseline="central" class="flow-node-label">n4</text><path d="M105,416 H185 V470 H105 Z" class="flow-node flow-node-shape flow-node-shape-rectangle"/><text x="145" y="443" text-anchor="middle" dominant-baseline="central" class="flow-node-label">n6</text><path d="M210,312 H290 V366 H210 Z" class="flow-node flow-node-shape flow-node-shape-rectangle"/><text x="250" y="339" text-anchor="middle" dominant-baseline="central" class="flow-node-label">n5</text><path d="M315,416 H395 V470 H315 Z" class="flow-node flow-node-shape flow-node-shape-rectangle"/><text x="355" y="443" text-anchor="middle" dominant-baseline="central" class="flow-node-label">n7</text><path d="M0,520 H80 V574 H0 Z" class="flow-node flow-node-shape flow-node-shape-rectangle"/><text x="40" y="547" text-anchor="middle" dominant-baseline="central" class="flow-node-label">n8</text><path d="M135,520 H215 V574 H135 Z" class="flow-node flow-node-shape flow-node-shape-rectangle"/><text x="175" y="547" text-anchor="middle" dominant-baseline="central" class="flow-node-label">n9</text><path d="M385,520 H465 V574 H385 Z" class="flow-node flow-node-shape flow-node-shape-rectangle"/><text x="425" y="547" text-anchor="middle" dominant-baseline="central" class="flow-node-label">n10</text></g></svg>